<svg width="520" height="520" viewBox="0 0 520 520" xmlns="http://www.w3.org/2000/svg">
    <g fill="none" fill-rule="evenodd" stroke="#fff" stroke-linecap="round" stroke-width="12.6"
        transform="translate(134 134)">
        <g stroke-linejoin="round">
            <path d="m50.4 0h-37.8c-6.958728 0-12.6 5.641272-12.6 12.6v37.8" />
            <path d="m201.6 252h37.8c6.95898 0 12.6-5.64102 12.6-12.6v-37.8" />
            <path d="m252 50.4v-37.8c0-6.958728-5.64102-12.6-12.6-12.6h-37.8" />
            <path d="m0 201.6v37.8c0 6.95898 5.641272 12.6 12.6 12.6h37.8" />
            <path
                d="m189 200.66634v-11.66634c0-34.79364-28.20636-63-63-63-34.793892 0-63 28.20636-63 63v11.66634c0 .51534.417816.93366.933282.93366h124.133058c.51534 0 .93366-.41832.93366-.93366z" />
        </g>
        <circle cx="126" cy="88.2" r="37.8" />
    </g>
</svg>