<svg width="266px" height="266px" viewBox="0 0 266 266" version="1.1" xmlns="http://www.w3.org/2000/svg"
    xmlns:xlink="http://www.w3.org/1999/xlink">
    <g id="Page-1" stroke="none" stroke-width="1" fill="none" fill-rule="evenodd">
        <g id="Group-2" transform="translate(7.000000, 7.000000)">
            <g id="Group" stroke="#FFFFFF" stroke-linecap="round" stroke-width="12.6">
                <g stroke-linejoin="round" id="Path">
                    <path
                        d="M50.4,0 L12.6,0 C5.641272,0 1.77635684e-15,5.641272 1.77635684e-15,12.6 L1.77635684e-15,50.4">
                    </path>
                    <path d="M201.6,252 L239.4,252 C246.35898,252 252,246.35898 252,239.4 L252,201.6"></path>
                    <path
                        d="M252,50.4 L252,12.6 C252,5.641272 246.35898,1.77635684e-15 239.4,1.77635684e-15 L201.6,1.77635684e-15">
                    </path>
                    <path d="M0,201.6 L0,239.4 C0,246.35898 5.641272,252 12.6,252 L50.4,252"></path>
                    <path
                        d="M189,200.66634 L189,189 C189,154.20636 160.79364,126 126,126 C91.206108,126 63,154.20636 63,189 L63,200.66634 C63,201.18168 63.417816,201.6 63.933282,201.6 L188.06634,201.6 C188.58168,201.6 189,201.18168 189,200.66634 Z">
                    </path>
                </g>
                <circle id="Oval" cx="126" cy="88.2" r="37.8"></circle>
            </g>
            <path
                d="M126,127.5 C138.012193,127.5 148.887193,132.368903 156.759145,140.240855 C164.631097,148.112807 169.5,158.987807 169.5,171 C169.5,183.012193 164.631097,193.887193 156.759145,201.759145 C148.887193,209.631097 138.012193,214.5 126,214.5 C113.987807,214.5 103.112807,209.631097 95.240855,201.759145 C87.3689033,193.887193 82.5,183.012193 82.5,171 C82.5,158.987807 87.3689033,148.112807 95.240855,140.240855 C103.112807,132.368903 113.987807,127.5 126,127.5 Z M126.5,145.5 C124.685387,145.5 123.039812,146.222201 121.832537,147.429476 C120.654725,148.607288 119.890168,150.252448 119.822034,152.149572 L119.822034,152.149572 L119.822004,163.822004 L108.177962,163.822034 L107.872284,163.828906 C106.149821,163.906508 104.597268,164.636628 103.455931,165.777965 C102.247457,166.986439 101.5,168.655931 101.5,170.5 C101.5,172.314613 102.222201,173.960188 103.429476,175.167463 C104.607301,176.345287 106.252483,177.109849 108.149632,177.177968 L108.149632,177.177968 L119.822004,177.17711 L119.822034,188.822038 L119.828906,189.127716 C119.906508,190.850179 120.636628,192.402732 121.777965,193.544069 C122.986439,194.752543 124.655931,195.5 126.5,195.5 C128.314613,195.5 129.960188,194.777799 131.167463,193.570524 C132.345287,192.392699 133.109849,190.747517 133.177968,188.850368 L133.177968,188.850368 L133.17711,177.17711 L144.821924,177.177966 L145.12762,177.171094 C146.850179,177.093492 148.402732,176.363372 149.544069,175.222035 C150.752543,174.013561 151.5,172.344069 151.5,170.5 C151.5,168.685387 150.777799,167.039812 149.570524,165.832537 C148.392712,164.654725 146.747552,163.890168 144.850428,163.822034 L144.850428,163.822034 L133.17711,163.822004 L133.177966,152.178076 L133.171094,151.87238 C133.093492,150.149821 132.363372,148.597268 131.222035,147.455931 C130.013561,146.247457 128.344069,145.5 126.5,145.5 Z"
                id="Combined-Shape" stroke="#FF6800" stroke-width="3" fill="#FFFFFF"></path>
        </g>
    </g>
</svg>